<?xml version="1.0" encoding="UTF-8" standalone="no"?><svg xmlns="http://www.w3.org/2000/svg" xmlns:xlink="http://www.w3.org/1999/xlink" fill="#191919" height="71.3" preserveAspectRatio="xMidYMid meet" version="1" viewBox="-0.4 -0.1 497.2 71.3" width="497.2" zoomAndPan="magnify"><g data-name="38" id="change1_1"><path d="M495.487.038c-39.013,10.278-77.4,22.691-115.978,34.466-6.878,2.1-13.858,3.959-20.628,6.389-5.132,1.843-10.26,3.7-15.489,5.249-5.533,1.642-11.333,3.209-17.14,3.293a13.2,13.2,0,0,1-6.4-1.129c-3.493-1.874-3.27-5.942-2.618-9.308.592-3.064,1.314-6.018,1.639-9.13.2-1.888.534-4.1-.284-5.9-1.966-4.314-9.85-3.161-13.477-2.865-16.019,1.306-31.417,7.646-46.2,13.533-6.548,2.607-13.083,5.171-19.456,8.19-7.354,3.483-14.595,7.2-22,10.583a135.246,135.246,0,0,1-23.182,8.56,64.005,64.005,0,0,1-12.051,1.921,48.358,48.358,0,0,1-4.979.023c-.937-.046-1.875-.119-2.807-.226-1.165-.134-1.224.1-1.692-.875-1.685-3.519.608-8.254,2.318-11.281a85.085,85.085,0,0,1,9.275-12.595c3.114-3.7,6.352-7.325,9.233-11.219,1.831-2.474,4.221-5.636,4.186-8.885a4.6,4.6,0,0,0-1.272-3.153,1.045,1.045,0,0,0-1.032-.273c-24.224,8.132-46.612,21.261-69.222,32.97C115.382,54,105.046,60.485,93.576,64.864A45.371,45.371,0,0,1,83.694,67.7c-1.838.251-4.516.468-5.924-1.024A138.546,138.546,0,0,1,95.144,44.993c5.055-5.311,10.157-10.635,15.614-15.537a153.1,153.1,0,0,0,13.956-13.607c3.419-3.967,7.123-8.73,7.436-14.17a.862.862,0,0,0-.856-.856c-18.257,1.341-35.631,7.9-52.136,15.465-8.632,3.955-17.1,8.251-25.588,12.506S36.467,37.015,28.2,41.685C18.674,47.073,9.532,53.106.312,59c-.726.465-.054,1.627.679,1.161,7.988-5.084,15.917-10.27,24.094-15.051,8.015-4.686,16.35-8.658,24.665-12.767,16.8-8.3,33.456-17.128,51.221-23.239A118.792,118.792,0,0,1,130.333,2.62c-.8,5.532-5.369,10.468-9.013,14.343-4.171,4.436-8.776,8.412-13.285,12.492-5.6,5.064-10.855,10.6-16.014,16.1A134.34,134.34,0,0,0,75.716,66.251a.974.974,0,0,0,0,.988c2.552,4.033,8.8,2.537,12.538,1.517,7.176-1.959,14.021-5.286,20.631-8.639,5.572-2.827,11.011-5.891,16.468-8.928,9.145-5.088,18.636-9.652,27.911-14.506,13.647-7.142,27.471-14.034,42.083-18.992,1.213,2.211-1.311,5.646-2.451,7.322a136.923,136.923,0,0,1-9.089,11.244A110.424,110.424,0,0,0,174.255,48.7c-2.127,3.386-4.2,7.356-4.14,11.465.02,1.456.285,3.71,1.307,4.86.8.905,2.573.788,3.715.9a46.246,46.246,0,0,0,5.657.189,75.05,75.05,0,0,0,22.5-4.6c15.169-5.265,29.073-13.389,43.756-19.775,7-3.042,14.176-5.751,21.3-8.471a197.822,197.822,0,0,1,24.421-7.891,82.415,82.415,0,0,1,11.978-2.049c3.119-.272,6.8-.664,9.862.2,2.261.636,2.357,2.277,2.24,4.38a57.794,57.794,0,0,1-1.47,9.246c-1.151,5.235-1.344,11.383,4.588,13.6,4.48,1.678,9.817.8,14.371-.078,10.358-2,19.932-6.288,29.98-9.3,39.1-11.705,77.886-24.455,117.2-35.417q7.239-2.019,14.5-3.948A1.024,1.024,0,0,0,495.487.038Z"/></g></svg>